<svg xmlns="http://www.w3.org/2000/svg" viewBox="0 0 100 100" width="100" height="100">
  <defs>
    <radialGradient id="we-bg" cx="50%" cy="38%" r="72%">
      <stop offset="0%" stop-color="#11231a"></stop>
      <stop offset="100%" stop-color="#0a130d"></stop>
    </radialGradient>
    <linearGradient id="we-grn" x1="0" y1="0" x2="0" y2="1">
      <stop offset="0%" stop-color="#54e98c"></stop>
      <stop offset="100%" stop-color="#27c06c"></stop>
    </linearGradient>
  </defs>

  
  <circle cx="50" cy="50" r="49" fill="url(#we-bg)"></circle>
  
  <circle cx="50" cy="50" r="42.5" fill="none" stroke="#2fae65" stroke-width="2.4" opacity="0.85"></circle>

  
  <path d="M22 88c0-13 8.5-22 16-24.5 0 0 4 3 12 3s12-3 12-3C69.5 66 78 75 78 88Z" fill="#0c160f" stroke="url(#we-grn)" stroke-width="2.4" stroke-linejoin="round"></path>
  
  <path d="M34 64c4 3.5 9.5 5 16 5s12-1.5 16-5" fill="none" stroke="#1c6c40" stroke-width="2" stroke-linecap="round"></path>

  
  <path d="M50 19c-12 0-19.5 8.4-19.5 19.2 0 6.6 3 11.2 6.2 14.1 1.5 1.35 2.3 2.5 2.5 4.4l.5 4.3c.15 1.3 1.2 2.3 2.5 2.3h15.6c1.3 0 2.35-1 2.5-2.3l.5-4.3c.2-1.9 1-3.05 2.5-4.4 3.2-2.9 6.2-7.5 6.2-14.1C69.5 27.4 62 19 50 19Z" fill="url(#we-grn)"></path>

  
  <ellipse cx="41.4" cy="39.5" rx="6.1" ry="7.3" fill="#0a130d"></ellipse>
  <ellipse cx="58.6" cy="39.5" rx="6.1" ry="7.3" fill="#0a130d"></ellipse>
  
  <path d="M50 46.5l3.1 6.2c.3.7-.2 1.5-1 1.5h-4.2c-.8 0-1.3-.8-1-1.5Z" fill="#0a130d"></path>
  
  <rect x="44.5" y="60.2" width="11" height="3.4" rx="1.2" fill="#0a130d"></rect>
  <rect x="49" y="56.5" width="2" height="7" fill="#0a130d"></rect>
</svg>